<svg data-v-fde0c5aa="" xmlns="http://www.w3.org/2000/svg" viewBox="0 0 300 300" class="iconLeft"><!----><defs data-v-fde0c5aa=""><!----></defs><rect data-v-fde0c5aa="" fill="transparent" x="0" y="0" width="300px" height="300px" class="logo-background-square"></rect><defs data-v-fde0c5aa=""><!----></defs><g data-v-fde0c5aa="" id="a63f44ad-6da1-4681-81c5-8ebb37c922f0" fill="#2e3034" transform="matrix(4.014405250549316,0,0,4.014405250549316,167.4334638648998,116.95956435089681)"><path d="M2.18 8.18L5.31 8.18C7.28 8.18 8.50 7.03 8.50 5.19C8.50 3.37 7.28 2.21 5.31 2.21L1.13 2.21L1.13 11.48L2.18 11.48ZM5.24 3.21C6.69 3.21 7.45 3.96 7.45 5.19C7.45 6.44 6.69 7.20 5.24 7.20L2.18 7.20L2.18 3.21ZM15.71 4.48L14.56 4.48L12.26 10.22L10.01 4.48L8.85 4.48L11.70 11.38L10.43 14.25L11.56 14.25ZM19.59 4.37C17.44 4.37 16.11 5.98 16.11 7.98C16.11 9.98 17.44 11.59 19.59 11.59C21.73 11.59 23.06 9.98 23.06 7.98C23.06 5.98 21.73 4.37 19.59 4.37ZM19.59 10.64C18.03 10.64 17.16 9.42 17.16 7.98C17.16 6.54 18.03 5.32 19.59 5.32C21.14 5.32 22.01 6.54 22.01 7.98C22.01 9.42 21.14 10.64 19.59 10.64Z"></path></g><defs data-v-fde0c5aa=""><!----></defs><g data-v-fde0c5aa="" id="43781ba9-4d64-471a-aafe-6c1dca8ea6cf" stroke="none" fill="#488eff" transform="matrix(0.9294167757034302,0,0,0.9294167757034302,40,90.51732456907102)"><path d="M74.313 25l-28.094 78h8.469l28.094-78h-8.469zM38 36.25l-2.188 1.406-34 22-1.813 1.156v4.25l1.688 1.219 34 24L38 91.875v-9.781L11.156 63.125 38 45.75v-9.5zm52 0v9.5l26.844 17.375L90 82.094v9.781l2.313-1.594 34-24 1.688-1.219v-4.25l-1.813-1.156-34-22L90 36.25z"></path></g><!----></svg>